<svg width="566.25" height="121.5" viewBox="0 0 755 162" fill="none" xmlns="http://www.w3.org/2000/svg">
<rect x="130.5" y="0.5" width="498" height="46" rx="11.5" fill="#D9D9D9" stroke="black"/>
<rect x="130.5" y="57.5" width="498" height="47" rx="11.5" fill="#D9D9D9" stroke="black"/>
<rect x="130.5" y="115.5" width="498" height="46" rx="11.5" fill="#00B706" stroke="black"/>
<path d="M299.253 13.248V23.616C299.253 25.216 299.549 26.432 300.141 27.264C300.733 28.08 301.773 28.488 303.261 28.488C304.749 28.488 305.789 28.08 306.381 27.264C306.973 26.432 307.269 25.216 307.269 23.616V13.248H309.285V23.136C309.285 24.352 309.173 25.408 308.949 26.304C308.741 27.2 308.397 27.944 307.917 28.536C307.437 29.128 306.805 29.568 306.021 29.856C305.253 30.144 304.309 30.288 303.189 30.288C302.069 30.288 301.125 30.144 300.357 29.856C299.605 29.568 298.997 29.128 298.533 28.536C298.069 27.944 297.733 27.2 297.525 26.304C297.333 25.408 297.237 24.352 297.237 23.136V13.248H299.253ZM312.831 30V28.32H315.183V14.928H312.831V13.248H319.551V14.928H317.199V28.32H319.551V30H312.831ZM334.808 30.288C332.68 30.288 331.024 29.568 329.84 28.128C328.656 26.672 328.064 24.536 328.064 21.72C328.064 18.904 328.656 16.744 329.84 15.24C331.024 13.72 332.68 12.96 334.808 12.96C336.216 12.96 337.392 13.28 338.336 13.92C339.296 14.56 340.04 15.464 340.568 16.632L338.936 17.616C338.6 16.752 338.088 16.064 337.4 15.552C336.712 15.024 335.848 14.76 334.808 14.76C334.088 14.76 333.44 14.896 332.864 15.168C332.304 15.44 331.824 15.832 331.424 16.344C331.04 16.84 330.744 17.44 330.536 18.144C330.328 18.832 330.224 19.608 330.224 20.472V22.968C330.224 24.696 330.624 26.048 331.424 27.024C332.224 28 333.352 28.488 334.808 28.488C335.88 28.488 336.776 28.216 337.496 27.672C338.216 27.112 338.744 26.376 339.08 25.464L340.688 26.472C340.16 27.656 339.4 28.592 338.408 29.28C337.416 29.952 336.216 30.288 334.808 30.288ZM348.298 30.288C347.466 30.288 346.706 30.136 346.018 29.832C345.33 29.528 344.738 29.096 344.242 28.536C343.762 27.96 343.386 27.28 343.114 26.496C342.842 25.696 342.706 24.8 342.706 23.808C342.706 22.832 342.842 21.944 343.114 21.144C343.386 20.344 343.762 19.664 344.242 19.104C344.738 18.528 345.33 18.088 346.018 17.784C346.706 17.48 347.466 17.328 348.298 17.328C349.13 17.328 349.882 17.48 350.554 17.784C351.242 18.088 351.834 18.528 352.33 19.104C352.826 19.664 353.21 20.344 353.482 21.144C353.754 21.944 353.89 22.832 353.89 23.808C353.89 24.8 353.754 25.696 353.482 26.496C353.21 27.28 352.826 27.96 352.33 28.536C351.834 29.096 351.242 29.528 350.554 29.832C349.882 30.136 349.13 30.288 348.298 30.288ZM348.298 28.584C349.338 28.584 350.186 28.264 350.842 27.624C351.498 26.984 351.826 26.008 351.826 24.696V22.92C351.826 21.608 351.498 20.632 350.842 19.992C350.186 19.352 349.338 19.032 348.298 19.032C347.258 19.032 346.41 19.352 345.754 19.992C345.098 20.632 344.77 21.608 344.77 22.92V24.696C344.77 26.008 345.098 26.984 345.754 27.624C346.41 28.264 347.258 28.584 348.298 28.584ZM357.048 30V17.616H358.968V19.632H359.064C359.208 19.312 359.368 19.016 359.544 18.744C359.736 18.456 359.96 18.208 360.216 18C360.488 17.792 360.8 17.632 361.152 17.52C361.504 17.392 361.92 17.328 362.4 17.328C363.216 17.328 363.968 17.528 364.656 17.928C365.344 18.312 365.856 18.952 366.192 19.848H366.24C366.464 19.176 366.88 18.592 367.488 18.096C368.112 17.584 368.952 17.328 370.008 17.328C371.272 17.328 372.256 17.744 372.96 18.576C373.68 19.392 374.04 20.552 374.04 22.056V30H372.12V22.392C372.12 21.288 371.904 20.456 371.472 19.896C371.04 19.336 370.352 19.056 369.408 19.056C369.024 19.056 368.656 19.104 368.304 19.2C367.968 19.296 367.664 19.44 367.392 19.632C367.12 19.824 366.904 20.072 366.744 20.376C366.584 20.664 366.504 21.008 366.504 21.408V30H364.584V22.392C364.584 21.288 364.368 20.456 363.936 19.896C363.504 19.336 362.832 19.056 361.92 19.056C361.536 19.056 361.168 19.104 360.816 19.2C360.464 19.296 360.152 19.44 359.88 19.632C359.608 19.824 359.384 20.072 359.208 20.376C359.048 20.664 358.968 21.008 358.968 21.408V30H357.048ZM378.001 17.616H379.921V19.632H380.017C380.337 18.848 380.801 18.272 381.409 17.904C382.033 17.52 382.777 17.328 383.641 17.328C384.409 17.328 385.105 17.48 385.729 17.784C386.353 18.088 386.881 18.52 387.313 19.08C387.761 19.64 388.097 20.32 388.321 21.12C388.561 21.92 388.681 22.816 388.681 23.808C388.681 24.8 388.561 25.696 388.321 26.496C388.097 27.296 387.761 27.976 387.313 28.536C386.881 29.096 386.353 29.528 385.729 29.832C385.105 30.136 384.409 30.288 383.641 30.288C381.961 30.288 380.753 29.52 380.017 27.984H379.921V34.8H378.001V17.616ZM383.113 28.56C384.201 28.56 385.057 28.224 385.681 27.552C386.305 26.864 386.617 25.968 386.617 24.864V22.752C386.617 21.648 386.305 20.76 385.681 20.088C385.057 19.4 384.201 19.056 383.113 19.056C382.681 19.056 382.265 19.12 381.865 19.248C381.481 19.36 381.145 19.52 380.857 19.728C380.569 19.936 380.337 20.192 380.161 20.496C380.001 20.784 379.921 21.096 379.921 21.432V26.04C379.921 26.44 380.001 26.8 380.161 27.12C380.337 27.424 380.569 27.688 380.857 27.912C381.145 28.12 381.481 28.28 381.865 28.392C382.265 28.504 382.681 28.56 383.113 28.56ZM396.603 30.288C395.771 30.288 395.011 30.136 394.323 29.832C393.635 29.528 393.043 29.096 392.547 28.536C392.067 27.96 391.691 27.28 391.419 26.496C391.147 25.696 391.011 24.8 391.011 23.808C391.011 22.832 391.147 21.944 391.419 21.144C391.691 20.344 392.067 19.664 392.547 19.104C393.043 18.528 393.635 18.088 394.323 17.784C395.011 17.48 395.771 17.328 396.603 17.328C397.435 17.328 398.187 17.48 398.859 17.784C399.547 18.088 400.139 18.528 400.635 19.104C401.131 19.664 401.515 20.344 401.787 21.144C402.059 21.944 402.195 22.832 402.195 23.808C402.195 24.8 402.059 25.696 401.787 26.496C401.515 27.28 401.131 27.96 400.635 28.536C400.139 29.096 399.547 29.528 398.859 29.832C398.187 30.136 397.435 30.288 396.603 30.288ZM396.603 28.584C397.643 28.584 398.491 28.264 399.147 27.624C399.803 26.984 400.131 26.008 400.131 24.696V22.92C400.131 21.608 399.803 20.632 399.147 19.992C398.491 19.352 397.643 19.032 396.603 19.032C395.563 19.032 394.715 19.352 394.059 19.992C393.403 20.632 393.075 21.608 393.075 22.92V24.696C393.075 26.008 393.403 26.984 394.059 27.624C394.715 28.264 395.563 28.584 396.603 28.584ZM405.353 30V17.616H407.273V19.632H407.369C407.673 18.928 408.097 18.368 408.641 17.952C409.201 17.536 409.945 17.328 410.873 17.328C412.153 17.328 413.161 17.744 413.897 18.576C414.649 19.392 415.025 20.552 415.025 22.056V30H413.105V22.392C413.105 20.168 412.169 19.056 410.297 19.056C409.913 19.056 409.537 19.104 409.169 19.2C408.817 19.296 408.497 19.44 408.209 19.632C407.921 19.824 407.689 20.072 407.513 20.376C407.353 20.664 407.273 21.008 407.273 21.408V30H405.353ZM423.649 30.288C422.801 30.288 422.033 30.136 421.345 29.832C420.673 29.528 420.089 29.096 419.593 28.536C419.113 27.96 418.737 27.28 418.465 26.496C418.209 25.696 418.081 24.8 418.081 23.808C418.081 22.832 418.209 21.944 418.465 21.144C418.737 20.344 419.113 19.664 419.593 19.104C420.089 18.528 420.673 18.088 421.345 17.784C422.033 17.48 422.801 17.328 423.649 17.328C424.481 17.328 425.225 17.48 425.881 17.784C426.537 18.088 427.097 18.512 427.561 19.056C428.025 19.584 428.377 20.216 428.617 20.952C428.873 21.688 429.001 22.496 429.001 23.376V24.288H420.097V24.864C420.097 25.392 420.177 25.888 420.337 26.352C420.513 26.8 420.753 27.192 421.057 27.528C421.377 27.864 421.761 28.128 422.209 28.32C422.673 28.512 423.193 28.608 423.769 28.608C424.553 28.608 425.233 28.424 425.809 28.056C426.401 27.688 426.857 27.16 427.177 26.472L428.545 27.456C428.145 28.304 427.521 28.992 426.673 29.52C425.825 30.032 424.817 30.288 423.649 30.288ZM423.649 18.936C423.121 18.936 422.641 19.032 422.209 19.224C421.777 19.4 421.401 19.656 421.081 19.992C420.777 20.328 420.537 20.728 420.361 21.192C420.185 21.64 420.097 22.136 420.097 22.68V22.848H426.937V22.584C426.937 21.48 426.633 20.6 426.025 19.944C425.433 19.272 424.641 18.936 423.649 18.936ZM432.165 30V17.616H434.085V19.632H434.181C434.485 18.928 434.909 18.368 435.453 17.952C436.013 17.536 436.757 17.328 437.685 17.328C438.965 17.328 439.973 17.744 440.709 18.576C441.461 19.392 441.837 20.552 441.837 22.056V30H439.917V22.392C439.917 20.168 438.981 19.056 437.109 19.056C436.725 19.056 436.349 19.104 435.981 19.2C435.629 19.296 435.309 19.44 435.021 19.632C434.733 19.824 434.501 20.072 434.325 20.376C434.165 20.664 434.085 21.008 434.085 21.408V30H432.165ZM448.542 30C447.87 30 447.358 29.816 447.006 29.448C446.67 29.064 446.502 28.568 446.502 27.96V19.296H444.462V17.616H445.614C446.03 17.616 446.31 17.536 446.454 17.376C446.614 17.2 446.694 16.904 446.694 16.488V14.184H448.422V17.616H451.134V19.296H448.422V28.32H450.942V30H448.542ZM457.94 30.288C456.788 30.288 455.82 30.072 455.036 29.64C454.268 29.192 453.604 28.6 453.044 27.864L454.412 26.76C454.892 27.368 455.428 27.84 456.02 28.176C456.612 28.496 457.3 28.656 458.084 28.656C458.9 28.656 459.532 28.48 459.98 28.128C460.444 27.776 460.676 27.28 460.676 26.64C460.676 26.16 460.516 25.752 460.196 25.416C459.892 25.064 459.332 24.824 458.516 24.696L457.532 24.552C456.956 24.472 456.428 24.352 455.948 24.192C455.468 24.016 455.044 23.792 454.676 23.52C454.324 23.232 454.044 22.88 453.836 22.464C453.644 22.048 453.548 21.552 453.548 20.976C453.548 20.368 453.66 19.84 453.884 19.392C454.108 18.928 454.412 18.544 454.796 18.24C455.196 17.936 455.668 17.712 456.212 17.568C456.756 17.408 457.34 17.328 457.964 17.328C458.972 17.328 459.812 17.504 460.484 17.856C461.172 18.208 461.772 18.696 462.284 19.32L461.012 20.472C460.74 20.088 460.34 19.744 459.812 19.44C459.284 19.12 458.62 18.96 457.82 18.96C457.02 18.96 456.412 19.136 455.996 19.488C455.596 19.824 455.396 20.288 455.396 20.88C455.396 21.488 455.596 21.928 455.996 22.2C456.412 22.472 457.004 22.672 457.772 22.8L458.732 22.944C460.108 23.152 461.084 23.552 461.66 24.144C462.236 24.72 462.524 25.48 462.524 26.424C462.524 27.624 462.116 28.568 461.3 29.256C460.484 29.944 459.364 30.288 457.94 30.288Z" fill="black"/>
<path d="M250.096 88.288C248.736 88.288 247.576 88.032 246.616 87.52C245.656 86.992 244.84 86.272 244.168 85.36L245.656 84.112C246.248 84.896 246.904 85.496 247.624 85.912C248.344 86.312 249.192 86.512 250.168 86.512C251.368 86.512 252.28 86.224 252.904 85.648C253.544 85.072 253.864 84.304 253.864 83.344C253.864 82.544 253.624 81.928 253.144 81.496C252.664 81.064 251.872 80.72 250.768 80.464L249.4 80.152C247.864 79.8 246.688 79.272 245.872 78.568C245.072 77.848 244.672 76.84 244.672 75.544C244.672 74.808 244.808 74.152 245.08 73.576C245.352 73 245.728 72.52 246.208 72.136C246.704 71.752 247.288 71.464 247.96 71.272C248.648 71.064 249.4 70.96 250.216 70.96C251.48 70.96 252.56 71.192 253.456 71.656C254.368 72.12 255.136 72.8 255.76 73.696L254.248 74.8C253.784 74.16 253.224 73.656 252.568 73.288C251.912 72.92 251.096 72.736 250.12 72.736C249.048 72.736 248.2 72.968 247.576 73.432C246.968 73.88 246.664 74.56 246.664 75.472C246.664 76.272 246.92 76.88 247.432 77.296C247.96 77.696 248.752 78.016 249.808 78.256L251.176 78.568C252.824 78.936 254.016 79.496 254.752 80.248C255.488 81 255.856 82 255.856 83.248C255.856 84.016 255.72 84.712 255.448 85.336C255.192 85.96 254.816 86.488 254.32 86.92C253.824 87.352 253.216 87.688 252.496 87.928C251.792 88.168 250.992 88.288 250.096 88.288ZM261.881 88C261.209 88 260.697 87.816 260.345 87.448C260.009 87.064 259.841 86.568 259.841 85.96V77.296H257.801V75.616H258.953C259.369 75.616 259.649 75.536 259.793 75.376C259.953 75.2 260.033 74.904 260.033 74.488V72.184H261.761V75.616H264.473V77.296H261.761V86.32H264.281V88H261.881ZM276.56 88C275.84 88 275.32 87.808 275 87.424C274.696 87.04 274.504 86.56 274.424 85.984H274.304C274.032 86.752 273.584 87.328 272.96 87.712C272.336 88.096 271.592 88.288 270.728 88.288C269.416 88.288 268.392 87.952 267.656 87.28C266.936 86.608 266.576 85.696 266.576 84.544C266.576 83.376 267 82.48 267.848 81.856C268.712 81.232 270.048 80.92 271.856 80.92H274.304V79.696C274.304 78.816 274.064 78.144 273.584 77.68C273.104 77.216 272.368 76.984 271.376 76.984C270.624 76.984 269.992 77.152 269.48 77.488C268.984 77.824 268.568 78.272 268.232 78.832L267.08 77.752C267.416 77.08 267.952 76.512 268.688 76.048C269.424 75.568 270.352 75.328 271.472 75.328C272.976 75.328 274.144 75.696 274.976 76.432C275.808 77.168 276.224 78.192 276.224 79.504V86.32H277.64V88H276.56ZM271.04 86.656C271.52 86.656 271.96 86.6 272.36 86.488C272.76 86.376 273.104 86.216 273.392 86.008C273.68 85.8 273.904 85.56 274.064 85.288C274.224 85.016 274.304 84.72 274.304 84.4V82.36H271.76C270.656 82.36 269.848 82.52 269.336 82.84C268.84 83.16 268.592 83.624 268.592 84.232V84.736C268.592 85.344 268.808 85.816 269.24 86.152C269.688 86.488 270.288 86.656 271.04 86.656ZM283.116 88C282.444 88 281.932 87.816 281.58 87.448C281.244 87.064 281.076 86.568 281.076 85.96V77.296H279.036V75.616H280.188C280.604 75.616 280.884 75.536 281.028 75.376C281.188 75.2 281.268 74.904 281.268 74.488V72.184H282.996V75.616H285.708V77.296H282.996V86.32H285.516V88H283.116ZM293.356 88.288C292.508 88.288 291.74 88.136 291.052 87.832C290.38 87.528 289.796 87.096 289.3 86.536C288.82 85.96 288.444 85.28 288.172 84.496C287.916 83.696 287.788 82.8 287.788 81.808C287.788 80.832 287.916 79.944 288.172 79.144C288.444 78.344 288.82 77.664 289.3 77.104C289.796 76.528 290.38 76.088 291.052 75.784C291.74 75.48 292.508 75.328 293.356 75.328C294.188 75.328 294.932 75.48 295.588 75.784C296.244 76.088 296.804 76.512 297.268 77.056C297.732 77.584 298.084 78.216 298.324 78.952C298.58 79.688 298.708 80.496 298.708 81.376V82.288H289.804V82.864C289.804 83.392 289.884 83.888 290.044 84.352C290.22 84.8 290.46 85.192 290.764 85.528C291.084 85.864 291.468 86.128 291.916 86.32C292.38 86.512 292.9 86.608 293.476 86.608C294.26 86.608 294.94 86.424 295.516 86.056C296.108 85.688 296.564 85.16 296.884 84.472L298.252 85.456C297.852 86.304 297.228 86.992 296.38 87.52C295.532 88.032 294.524 88.288 293.356 88.288ZM293.356 76.936C292.828 76.936 292.348 77.032 291.916 77.224C291.484 77.4 291.108 77.656 290.788 77.992C290.484 78.328 290.244 78.728 290.068 79.192C289.892 79.64 289.804 80.136 289.804 80.68V80.848H296.644V80.584C296.644 79.48 296.34 78.6 295.732 77.944C295.14 77.272 294.348 76.936 293.356 76.936ZM305.72 91.624L311.984 70.24H313.712L307.448 91.624H305.72ZM322.595 71.248H328.211C329.251 71.248 330.195 71.424 331.043 71.776C331.891 72.128 332.611 72.656 333.203 73.36C333.811 74.048 334.275 74.92 334.595 75.976C334.915 77.016 335.075 78.232 335.075 79.624C335.075 81.016 334.915 82.24 334.595 83.296C334.275 84.336 333.811 85.208 333.203 85.912C332.611 86.6 331.891 87.12 331.043 87.472C330.195 87.824 329.251 88 328.211 88H322.595V71.248ZM328.211 86.224C328.899 86.224 329.531 86.112 330.107 85.888C330.683 85.648 331.179 85.304 331.595 84.856C332.011 84.408 332.331 83.864 332.555 83.224C332.795 82.568 332.915 81.824 332.915 80.992V78.256C332.915 77.424 332.795 76.688 332.555 76.048C332.331 75.392 332.011 74.84 331.595 74.392C331.179 73.944 330.683 73.608 330.107 73.384C329.531 73.144 328.899 73.024 328.211 73.024H324.611V86.224H328.211ZM347.505 88C346.785 88 346.265 87.808 345.945 87.424C345.641 87.04 345.449 86.56 345.369 85.984H345.249C344.977 86.752 344.529 87.328 343.905 87.712C343.281 88.096 342.537 88.288 341.673 88.288C340.361 88.288 339.337 87.952 338.601 87.28C337.881 86.608 337.521 85.696 337.521 84.544C337.521 83.376 337.945 82.48 338.793 81.856C339.657 81.232 340.993 80.92 342.801 80.92H345.249V79.696C345.249 78.816 345.009 78.144 344.529 77.68C344.049 77.216 343.313 76.984 342.321 76.984C341.569 76.984 340.937 77.152 340.425 77.488C339.929 77.824 339.513 78.272 339.177 78.832L338.025 77.752C338.361 77.08 338.897 76.512 339.633 76.048C340.369 75.568 341.297 75.328 342.417 75.328C343.921 75.328 345.089 75.696 345.921 76.432C346.753 77.168 347.169 78.192 347.169 79.504V86.32H348.585V88H347.505ZM341.985 86.656C342.465 86.656 342.905 86.6 343.305 86.488C343.705 86.376 344.049 86.216 344.337 86.008C344.625 85.8 344.849 85.56 345.009 85.288C345.169 85.016 345.249 84.72 345.249 84.4V82.36H342.705C341.601 82.36 340.793 82.52 340.281 82.84C339.785 83.16 339.537 83.624 339.537 84.232V84.736C339.537 85.344 339.753 85.816 340.185 86.152C340.633 86.488 341.233 86.656 341.985 86.656ZM354.061 88C353.389 88 352.877 87.816 352.525 87.448C352.189 87.064 352.021 86.568 352.021 85.96V77.296H349.981V75.616H351.133C351.549 75.616 351.829 75.536 351.973 75.376C352.133 75.2 352.213 74.904 352.213 74.488V72.184H353.941V75.616H356.653V77.296H353.941V86.32H356.461V88H354.061ZM368.739 88C368.019 88 367.499 87.808 367.179 87.424C366.875 87.04 366.683 86.56 366.603 85.984H366.483C366.211 86.752 365.763 87.328 365.139 87.712C364.515 88.096 363.771 88.288 362.907 88.288C361.595 88.288 360.571 87.952 359.835 87.28C359.115 86.608 358.755 85.696 358.755 84.544C358.755 83.376 359.179 82.48 360.027 81.856C360.891 81.232 362.227 80.92 364.035 80.92H366.483V79.696C366.483 78.816 366.243 78.144 365.763 77.68C365.283 77.216 364.547 76.984 363.555 76.984C362.803 76.984 362.171 77.152 361.659 77.488C361.163 77.824 360.747 78.272 360.411 78.832L359.259 77.752C359.595 77.08 360.131 76.512 360.867 76.048C361.603 75.568 362.531 75.328 363.651 75.328C365.155 75.328 366.323 75.696 367.155 76.432C367.987 77.168 368.403 78.192 368.403 79.504V86.32H369.819V88H368.739ZM363.219 86.656C363.699 86.656 364.139 86.6 364.539 86.488C364.939 86.376 365.283 86.216 365.571 86.008C365.859 85.8 366.083 85.56 366.243 85.288C366.403 85.016 366.483 84.72 366.483 84.4V82.36H363.939C362.835 82.36 362.027 82.52 361.515 82.84C361.019 83.16 360.771 83.624 360.771 84.232V84.736C360.771 85.344 360.987 85.816 361.419 86.152C361.867 86.488 362.467 86.656 363.219 86.656ZM391.479 73.888H391.359L389.943 76.696L385.935 83.992L381.927 76.696L380.511 73.888H380.391V88H378.423V71.248H381.111L385.911 80.272H386.031L390.855 71.248H393.447V88H391.479V73.888ZM406.708 88C405.988 88 405.468 87.808 405.148 87.424C404.844 87.04 404.652 86.56 404.572 85.984H404.452C404.18 86.752 403.732 87.328 403.108 87.712C402.484 88.096 401.74 88.288 400.876 88.288C399.564 88.288 398.54 87.952 397.804 87.28C397.084 86.608 396.724 85.696 396.724 84.544C396.724 83.376 397.148 82.48 397.996 81.856C398.86 81.232 400.196 80.92 402.004 80.92H404.452V79.696C404.452 78.816 404.212 78.144 403.732 77.68C403.252 77.216 402.516 76.984 401.524 76.984C400.772 76.984 400.14 77.152 399.628 77.488C399.132 77.824 398.716 78.272 398.38 78.832L397.228 77.752C397.564 77.08 398.1 76.512 398.836 76.048C399.572 75.568 400.5 75.328 401.62 75.328C403.124 75.328 404.292 75.696 405.124 76.432C405.956 77.168 406.372 78.192 406.372 79.504V86.32H407.788V88H406.708ZM401.188 86.656C401.668 86.656 402.108 86.6 402.508 86.488C402.908 86.376 403.252 86.216 403.54 86.008C403.828 85.8 404.052 85.56 404.212 85.288C404.372 85.016 404.452 84.72 404.452 84.4V82.36H401.908C400.804 82.36 399.996 82.52 399.484 82.84C398.988 83.16 398.74 83.624 398.74 84.232V84.736C398.74 85.344 398.956 85.816 399.388 86.152C399.836 86.488 400.436 86.656 401.188 86.656ZM410.528 88V75.616H412.448V77.632H412.544C412.848 76.928 413.272 76.368 413.816 75.952C414.376 75.536 415.12 75.328 416.048 75.328C417.328 75.328 418.336 75.744 419.072 76.576C419.824 77.392 420.2 78.552 420.2 80.056V88H418.28V80.392C418.28 78.168 417.344 77.056 415.472 77.056C415.088 77.056 414.712 77.104 414.344 77.2C413.992 77.296 413.672 77.44 413.384 77.632C413.096 77.824 412.864 78.072 412.688 78.376C412.528 78.664 412.448 79.008 412.448 79.408V88H410.528ZM433.169 88C432.449 88 431.929 87.808 431.609 87.424C431.305 87.04 431.113 86.56 431.033 85.984H430.913C430.641 86.752 430.193 87.328 429.569 87.712C428.945 88.096 428.201 88.288 427.337 88.288C426.025 88.288 425.001 87.952 424.265 87.28C423.545 86.608 423.185 85.696 423.185 84.544C423.185 83.376 423.609 82.48 424.457 81.856C425.321 81.232 426.657 80.92 428.465 80.92H430.913V79.696C430.913 78.816 430.673 78.144 430.193 77.68C429.713 77.216 428.977 76.984 427.985 76.984C427.233 76.984 426.601 77.152 426.089 77.488C425.593 77.824 425.177 78.272 424.841 78.832L423.689 77.752C424.025 77.08 424.561 76.512 425.297 76.048C426.033 75.568 426.961 75.328 428.081 75.328C429.585 75.328 430.753 75.696 431.585 76.432C432.417 77.168 432.833 78.192 432.833 79.504V86.32H434.249V88H433.169ZM427.649 86.656C428.129 86.656 428.569 86.6 428.969 86.488C429.369 86.376 429.713 86.216 430.001 86.008C430.289 85.8 430.513 85.56 430.673 85.288C430.833 85.016 430.913 84.72 430.913 84.4V82.36H428.369C427.265 82.36 426.457 82.52 425.945 82.84C425.449 83.16 425.201 83.624 425.201 84.232V84.736C425.201 85.344 425.417 85.816 425.849 86.152C426.297 86.488 426.897 86.656 427.649 86.656ZM447.429 89.368C447.429 90.648 446.925 91.584 445.917 92.176C444.925 92.784 443.429 93.088 441.429 93.088C439.493 93.088 438.101 92.824 437.253 92.296C436.405 91.768 435.981 91.016 435.981 90.04C435.981 89.368 436.157 88.84 436.509 88.456C436.861 88.088 437.341 87.816 437.949 87.64V87.376C437.213 87.024 436.845 86.448 436.845 85.648C436.845 85.024 437.045 84.552 437.445 84.232C437.845 83.896 438.357 83.648 438.981 83.488V83.392C438.245 83.04 437.669 82.536 437.253 81.88C436.853 81.224 436.653 80.464 436.653 79.6C436.653 78.976 436.765 78.4 436.989 77.872C437.213 77.344 437.525 76.896 437.925 76.528C438.341 76.144 438.829 75.848 439.389 75.64C439.965 75.432 440.605 75.328 441.309 75.328C442.189 75.328 442.973 75.488 443.661 75.808V75.592C443.661 75.112 443.773 74.72 443.997 74.416C444.221 74.096 444.589 73.936 445.101 73.936H446.949V75.616H444.597V76.408C445.045 76.792 445.389 77.256 445.629 77.8C445.885 78.328 446.013 78.928 446.013 79.6C446.013 80.224 445.901 80.8 445.677 81.328C445.453 81.856 445.133 82.312 444.717 82.696C444.317 83.064 443.829 83.352 443.253 83.56C442.677 83.768 442.037 83.872 441.333 83.872C440.933 83.872 440.533 83.832 440.133 83.752C439.717 83.864 439.341 84.032 439.005 84.256C438.669 84.464 438.501 84.76 438.501 85.144C438.501 85.512 438.677 85.76 439.029 85.888C439.381 86.016 439.837 86.08 440.397 86.08H443.037C444.573 86.08 445.685 86.376 446.373 86.968C447.077 87.544 447.429 88.344 447.429 89.368ZM445.629 89.512C445.629 89.016 445.437 88.616 445.053 88.312C444.685 88.024 444.021 87.88 443.061 87.88H438.933C438.165 88.232 437.781 88.792 437.781 89.56C437.781 90.104 437.981 90.568 438.381 90.952C438.797 91.336 439.493 91.528 440.469 91.528H442.245C443.317 91.528 444.149 91.36 444.741 91.024C445.333 90.688 445.629 90.184 445.629 89.512ZM441.333 82.336C442.149 82.336 442.797 82.144 443.277 81.76C443.757 81.36 443.997 80.752 443.997 79.936V79.264C443.997 78.448 443.757 77.848 443.277 77.464C442.797 77.064 442.149 76.864 441.333 76.864C440.517 76.864 439.869 77.064 439.389 77.464C438.909 77.848 438.669 78.448 438.669 79.264V79.936C438.669 80.752 438.909 81.36 439.389 81.76C439.869 82.144 440.517 82.336 441.333 82.336ZM454.184 88.288C453.336 88.288 452.568 88.136 451.88 87.832C451.208 87.528 450.624 87.096 450.128 86.536C449.648 85.96 449.272 85.28 449 84.496C448.744 83.696 448.616 82.8 448.616 81.808C448.616 80.832 448.744 79.944 449 79.144C449.272 78.344 449.648 77.664 450.128 77.104C450.624 76.528 451.208 76.088 451.88 75.784C452.568 75.48 453.336 75.328 454.184 75.328C455.016 75.328 455.76 75.48 456.416 75.784C457.072 76.088 457.632 76.512 458.096 77.056C458.56 77.584 458.912 78.216 459.152 78.952C459.408 79.688 459.536 80.496 459.536 81.376V82.288H450.632V82.864C450.632 83.392 450.712 83.888 450.872 84.352C451.048 84.8 451.288 85.192 451.592 85.528C451.912 85.864 452.296 86.128 452.744 86.32C453.208 86.512 453.728 86.608 454.304 86.608C455.088 86.608 455.768 86.424 456.344 86.056C456.936 85.688 457.392 85.16 457.712 84.472L459.08 85.456C458.68 86.304 458.056 86.992 457.208 87.52C456.36 88.032 455.352 88.288 454.184 88.288ZM454.184 76.936C453.656 76.936 453.176 77.032 452.744 77.224C452.312 77.4 451.936 77.656 451.616 77.992C451.312 78.328 451.072 78.728 450.896 79.192C450.72 79.64 450.632 80.136 450.632 80.68V80.848H457.472V80.584C457.472 79.48 457.168 78.6 456.56 77.944C455.968 77.272 455.176 76.936 454.184 76.936ZM462.7 88V75.616H464.62V77.632H464.716C464.86 77.312 465.02 77.016 465.196 76.744C465.388 76.456 465.612 76.208 465.868 76C466.14 75.792 466.452 75.632 466.804 75.52C467.156 75.392 467.572 75.328 468.052 75.328C468.868 75.328 469.62 75.528 470.308 75.928C470.996 76.312 471.508 76.952 471.844 77.848H471.892C472.116 77.176 472.532 76.592 473.14 76.096C473.764 75.584 474.604 75.328 475.66 75.328C476.924 75.328 477.908 75.744 478.612 76.576C479.332 77.392 479.692 78.552 479.692 80.056V88H477.772V80.392C477.772 79.288 477.556 78.456 477.124 77.896C476.692 77.336 476.004 77.056 475.06 77.056C474.676 77.056 474.308 77.104 473.956 77.2C473.62 77.296 473.316 77.44 473.044 77.632C472.772 77.824 472.556 78.072 472.396 78.376C472.236 78.664 472.156 79.008 472.156 79.408V88H470.236V80.392C470.236 79.288 470.02 78.456 469.588 77.896C469.156 77.336 468.484 77.056 467.572 77.056C467.188 77.056 466.82 77.104 466.468 77.2C466.116 77.296 465.804 77.44 465.532 77.632C465.26 77.824 465.036 78.072 464.86 78.376C464.7 78.664 464.62 79.008 464.62 79.408V88H462.7ZM488.309 88.288C487.461 88.288 486.693 88.136 486.005 87.832C485.333 87.528 484.749 87.096 484.253 86.536C483.773 85.96 483.397 85.28 483.125 84.496C482.869 83.696 482.741 82.8 482.741 81.808C482.741 80.832 482.869 79.944 483.125 79.144C483.397 78.344 483.773 77.664 484.253 77.104C484.749 76.528 485.333 76.088 486.005 75.784C486.693 75.48 487.461 75.328 488.309 75.328C489.141 75.328 489.885 75.48 490.541 75.784C491.197 76.088 491.757 76.512 492.221 77.056C492.685 77.584 493.037 78.216 493.277 78.952C493.533 79.688 493.661 80.496 493.661 81.376V82.288H484.757V82.864C484.757 83.392 484.837 83.888 484.997 84.352C485.173 84.8 485.413 85.192 485.717 85.528C486.037 85.864 486.421 86.128 486.869 86.32C487.333 86.512 487.853 86.608 488.429 86.608C489.213 86.608 489.893 86.424 490.469 86.056C491.061 85.688 491.517 85.16 491.837 84.472L493.205 85.456C492.805 86.304 492.181 86.992 491.333 87.52C490.485 88.032 489.477 88.288 488.309 88.288ZM488.309 76.936C487.781 76.936 487.301 77.032 486.869 77.224C486.437 77.4 486.061 77.656 485.741 77.992C485.437 78.328 485.197 78.728 485.021 79.192C484.845 79.64 484.757 80.136 484.757 80.68V80.848H491.597V80.584C491.597 79.48 491.293 78.6 490.685 77.944C490.093 77.272 489.301 76.936 488.309 76.936ZM496.825 88V75.616H498.745V77.632H498.841C499.145 76.928 499.569 76.368 500.113 75.952C500.673 75.536 501.417 75.328 502.345 75.328C503.625 75.328 504.633 75.744 505.369 76.576C506.121 77.392 506.497 78.552 506.497 80.056V88H504.577V80.392C504.577 78.168 503.641 77.056 501.769 77.056C501.385 77.056 501.009 77.104 500.641 77.2C500.289 77.296 499.969 77.44 499.681 77.632C499.393 77.824 499.161 78.072 498.985 78.376C498.825 78.664 498.745 79.008 498.745 79.408V88H496.825ZM513.202 88C512.53 88 512.018 87.816 511.666 87.448C511.33 87.064 511.162 86.568 511.162 85.96V77.296H509.122V75.616H510.274C510.69 75.616 510.97 75.536 511.114 75.376C511.274 75.2 511.354 74.904 511.354 74.488V72.184H513.082V75.616H515.794V77.296H513.082V86.32H515.602V88H513.202Z" fill="black"/>
<path d="M224.374 146.288C223.014 146.288 221.854 146.032 220.894 145.52C219.934 144.992 219.118 144.272 218.446 143.36L219.934 142.112C220.526 142.896 221.182 143.496 221.902 143.912C222.622 144.312 223.47 144.512 224.446 144.512C225.646 144.512 226.558 144.224 227.182 143.648C227.822 143.072 228.142 142.304 228.142 141.344C228.142 140.544 227.902 139.928 227.422 139.496C226.942 139.064 226.15 138.72 225.046 138.464L223.678 138.152C222.142 137.8 220.966 137.272 220.15 136.568C219.35 135.848 218.95 134.84 218.95 133.544C218.95 132.808 219.086 132.152 219.358 131.576C219.63 131 220.006 130.52 220.486 130.136C220.982 129.752 221.566 129.464 222.238 129.272C222.926 129.064 223.678 128.96 224.493 128.96C225.758 128.96 226.838 129.192 227.734 129.656C228.646 130.12 229.414 130.8 230.038 131.696L228.526 132.8C228.062 132.16 227.502 131.656 226.846 131.288C226.19 130.92 225.374 130.736 224.398 130.736C223.326 130.736 222.478 130.968 221.854 131.432C221.246 131.88 220.942 132.56 220.942 133.472C220.942 134.272 221.198 134.88 221.71 135.296C222.238 135.696 223.03 136.016 224.086 136.256L225.454 136.568C227.102 136.936 228.294 137.496 229.03 138.248C229.766 139 230.134 140 230.134 141.248C230.134 142.016 229.998 142.712 229.726 143.336C229.47 143.96 229.094 144.488 228.598 144.92C228.102 145.352 227.494 145.688 226.774 145.928C226.07 146.168 225.27 146.288 224.374 146.288ZM238.079 146.288C237.231 146.288 236.463 146.136 235.775 145.832C235.103 145.528 234.519 145.096 234.023 144.536C233.543 143.96 233.167 143.28 232.895 142.496C232.639 141.696 232.511 140.8 232.511 139.808C232.511 138.832 232.639 137.944 232.895 137.144C233.167 136.344 233.543 135.664 234.023 135.104C234.519 134.528 235.103 134.088 235.775 133.784C236.463 133.48 237.231 133.328 238.079 133.328C238.911 133.328 239.655 133.48 240.311 133.784C240.967 134.088 241.527 134.512 241.991 135.056C242.455 135.584 242.807 136.216 243.047 136.952C243.303 137.688 243.431 138.496 243.431 139.376V140.288H234.527V140.864C234.527 141.392 234.607 141.888 234.767 142.352C234.943 142.8 235.183 143.192 235.487 143.528C235.807 143.864 236.191 144.128 236.639 144.32C237.103 144.512 237.623 144.608 238.199 144.608C238.983 144.608 239.663 144.424 240.239 144.056C240.831 143.688 241.287 143.16 241.607 142.472L242.975 143.456C242.575 144.304 241.951 144.992 241.103 145.52C240.255 146.032 239.247 146.288 238.079 146.288ZM238.079 134.936C237.551 134.936 237.071 135.032 236.639 135.224C236.207 135.4 235.831 135.656 235.511 135.992C235.207 136.328 234.967 136.728 234.791 137.192C234.615 137.64 234.527 138.136 234.527 138.68V138.848H241.367V138.584C241.367 137.48 241.063 136.6 240.455 135.944C239.863 135.272 239.071 134.936 238.079 134.936ZM254.515 143.984H254.419C253.667 145.52 252.459 146.288 250.795 146.288C250.027 146.288 249.331 146.136 248.707 145.832C248.083 145.528 247.547 145.096 247.099 144.536C246.667 143.976 246.331 143.296 246.091 142.496C245.867 141.696 245.755 140.8 245.755 139.808C245.755 138.816 245.867 137.92 246.091 137.12C246.331 136.32 246.667 135.64 247.099 135.08C247.547 134.52 248.083 134.088 248.707 133.784C249.331 133.48 250.027 133.328 250.795 133.328C251.659 133.328 252.395 133.52 253.003 133.904C253.627 134.272 254.099 134.848 254.419 135.632H254.515V133.616H256.435V150.8H254.515V143.984ZM251.323 144.56C251.755 144.56 252.163 144.504 252.547 144.392C252.947 144.28 253.291 144.12 253.579 143.912C253.867 143.688 254.091 143.424 254.251 143.12C254.427 142.8 254.515 142.44 254.515 142.04V137.432C254.515 137.096 254.427 136.784 254.251 136.496C254.091 136.192 253.867 135.936 253.579 135.728C253.291 135.52 252.947 135.36 252.547 135.248C252.163 135.12 251.755 135.056 251.323 135.056C250.235 135.056 249.379 135.4 248.755 136.088C248.131 136.76 247.819 137.648 247.819 138.752V140.864C247.819 141.968 248.131 142.864 248.755 143.552C249.379 144.224 250.235 144.56 251.323 144.56ZM268.149 143.984H268.053C267.925 144.272 267.765 144.56 267.573 144.848C267.397 145.12 267.173 145.368 266.901 145.592C266.629 145.8 266.301 145.968 265.917 146.096C265.533 146.224 265.085 146.288 264.573 146.288C263.293 146.288 262.277 145.88 261.525 145.064C260.773 144.232 260.397 143.064 260.397 141.56V133.616H262.317V141.224C262.317 143.448 263.261 144.56 265.149 144.56C265.533 144.56 265.901 144.512 266.253 144.416C266.621 144.32 266.941 144.176 267.213 143.984C267.501 143.792 267.725 143.552 267.885 143.264C268.061 142.96 268.149 142.6 268.149 142.184V133.616H270.069V146H268.149V143.984ZM278.813 146.288C277.965 146.288 277.197 146.136 276.509 145.832C275.837 145.528 275.253 145.096 274.757 144.536C274.277 143.96 273.901 143.28 273.629 142.496C273.373 141.696 273.245 140.8 273.245 139.808C273.245 138.832 273.373 137.944 273.629 137.144C273.901 136.344 274.277 135.664 274.757 135.104C275.253 134.528 275.837 134.088 276.509 133.784C277.197 133.48 277.965 133.328 278.813 133.328C279.645 133.328 280.389 133.48 281.045 133.784C281.701 134.088 282.261 134.512 282.725 135.056C283.189 135.584 283.541 136.216 283.781 136.952C284.037 137.688 284.165 138.496 284.165 139.376V140.288H275.261V140.864C275.261 141.392 275.341 141.888 275.501 142.352C275.677 142.8 275.917 143.192 276.221 143.528C276.541 143.864 276.925 144.128 277.373 144.32C277.837 144.512 278.357 144.608 278.933 144.608C279.717 144.608 280.397 144.424 280.973 144.056C281.565 143.688 282.021 143.16 282.341 142.472L283.709 143.456C283.309 144.304 282.685 144.992 281.837 145.52C280.989 146.032 279.981 146.288 278.813 146.288ZM278.813 134.936C278.285 134.936 277.805 135.032 277.373 135.224C276.941 135.4 276.565 135.656 276.245 135.992C275.941 136.328 275.701 136.728 275.525 137.192C275.349 137.64 275.261 138.136 275.261 138.68V138.848H282.101V138.584C282.101 137.48 281.797 136.6 281.189 135.944C280.597 135.272 279.805 134.936 278.813 134.936ZM287.329 146V133.616H289.249V135.632H289.345C289.649 134.928 290.073 134.368 290.617 133.952C291.177 133.536 291.921 133.328 292.849 133.328C294.129 133.328 295.137 133.744 295.873 134.576C296.625 135.392 297.001 136.552 297.001 138.056V146H295.081V138.392C295.081 136.168 294.145 135.056 292.273 135.056C291.889 135.056 291.513 135.104 291.145 135.2C290.793 135.296 290.473 135.44 290.185 135.632C289.897 135.824 289.665 136.072 289.489 136.376C289.329 136.664 289.249 137.008 289.249 137.408V146H287.329ZM305.578 146.288C304.714 146.288 303.938 146.136 303.25 145.832C302.562 145.528 301.978 145.096 301.498 144.536C301.034 143.976 300.674 143.296 300.418 142.496C300.178 141.696 300.058 140.8 300.058 139.808C300.058 138.816 300.178 137.92 300.418 137.12C300.674 136.32 301.034 135.64 301.498 135.08C301.978 134.52 302.562 134.088 303.25 133.784C303.938 133.48 304.714 133.328 305.578 133.328C306.81 133.328 307.794 133.6 308.53 134.144C309.282 134.672 309.842 135.368 310.21 136.232L308.602 137.048C308.378 136.408 308.01 135.912 307.498 135.56C306.986 135.208 306.346 135.032 305.578 135.032C305.002 135.032 304.498 135.128 304.066 135.32C303.634 135.496 303.274 135.752 302.986 136.088C302.698 136.408 302.482 136.8 302.338 137.264C302.194 137.712 302.122 138.208 302.122 138.752V140.864C302.122 141.952 302.41 142.848 302.986 143.552C303.578 144.24 304.442 144.584 305.578 144.584C307.13 144.584 308.25 143.864 308.938 142.424L310.33 143.36C309.93 144.256 309.33 144.968 308.53 145.496C307.746 146.024 306.762 146.288 305.578 146.288ZM317.555 146.288C316.707 146.288 315.939 146.136 315.251 145.832C314.579 145.528 313.995 145.096 313.499 144.536C313.019 143.96 312.643 143.28 312.371 142.496C312.115 141.696 311.987 140.8 311.987 139.808C311.987 138.832 312.115 137.944 312.371 137.144C312.643 136.344 313.019 135.664 313.499 135.104C313.995 134.528 314.579 134.088 315.251 133.784C315.939 133.48 316.707 133.328 317.555 133.328C318.387 133.328 319.131 133.48 319.787 133.784C320.443 134.088 321.003 134.512 321.467 135.056C321.931 135.584 322.283 136.216 322.523 136.952C322.779 137.688 322.907 138.496 322.907 139.376V140.288H314.003V140.864C314.003 141.392 314.083 141.888 314.243 142.352C314.419 142.8 314.659 143.192 314.963 143.528C315.283 143.864 315.667 144.128 316.115 144.32C316.579 144.512 317.099 144.608 317.675 144.608C318.459 144.608 319.139 144.424 319.715 144.056C320.307 143.688 320.763 143.16 321.083 142.472L322.451 143.456C322.051 144.304 321.427 144.992 320.579 145.52C319.731 146.032 318.723 146.288 317.555 146.288ZM317.555 134.936C317.027 134.936 316.547 135.032 316.115 135.224C315.683 135.4 315.307 135.656 314.987 135.992C314.683 136.328 314.443 136.728 314.267 137.192C314.091 137.64 314.003 138.136 314.003 138.68V138.848H320.843V138.584C320.843 137.48 320.539 136.6 319.931 135.944C319.339 135.272 318.547 134.936 317.555 134.936ZM329.919 149.624L336.183 128.24H337.911L331.647 149.624H329.919ZM346.795 146V129.248H356.779V131.024H348.811V136.64H356.083V138.416H348.811V146H346.795ZM362.049 146C361.377 146 360.865 145.816 360.513 145.448C360.177 145.064 360.009 144.584 360.009 144.008V128.24H361.929V144.32H363.753V146H362.049ZM371.228 146.288C370.396 146.288 369.636 146.136 368.948 145.832C368.26 145.528 367.668 145.096 367.172 144.536C366.692 143.96 366.316 143.28 366.044 142.496C365.772 141.696 365.636 140.8 365.636 139.808C365.636 138.832 365.772 137.944 366.044 137.144C366.316 136.344 366.692 135.664 367.172 135.104C367.668 134.528 368.26 134.088 368.948 133.784C369.636 133.48 370.396 133.328 371.228 133.328C372.06 133.328 372.812 133.48 373.484 133.784C374.172 134.088 374.764 134.528 375.26 135.104C375.756 135.664 376.14 136.344 376.412 137.144C376.684 137.944 376.82 138.832 376.82 139.808C376.82 140.8 376.684 141.696 376.412 142.496C376.14 143.28 375.756 143.96 375.26 144.536C374.764 145.096 374.172 145.528 373.484 145.832C372.812 146.136 372.06 146.288 371.228 146.288ZM371.228 144.584C372.268 144.584 373.116 144.264 373.772 143.624C374.428 142.984 374.756 142.008 374.756 140.696V138.92C374.756 137.608 374.428 136.632 373.772 135.992C373.116 135.352 372.268 135.032 371.228 135.032C370.188 135.032 369.34 135.352 368.684 135.992C368.028 136.632 367.7 137.608 367.7 138.92V140.696C367.7 142.008 368.028 142.984 368.684 143.624C369.34 144.264 370.188 144.584 371.228 144.584ZM378.564 133.616H380.436L381.756 138.968L383.076 144.392H383.124L384.636 138.968L386.196 133.616H387.9L389.508 138.968L391.044 144.392H391.092L392.364 138.968L393.708 133.616H395.508L392.22 146H389.844L388.116 140.048L387.036 136.28H386.988L385.932 140.048L384.204 146H381.876L378.564 133.616ZM417.202 131.888H417.082L415.666 134.696L411.658 141.992L407.65 134.696L406.234 131.888H406.114V146H404.146V129.248H406.834L411.634 138.272H411.754L416.578 129.248H419.17V146H417.202V131.888ZM432.431 146C431.711 146 431.191 145.808 430.871 145.424C430.567 145.04 430.375 144.56 430.295 143.984H430.175C429.903 144.752 429.455 145.328 428.831 145.712C428.207 146.096 427.463 146.288 426.599 146.288C425.287 146.288 424.263 145.952 423.527 145.28C422.807 144.608 422.447 143.696 422.447 142.544C422.447 141.376 422.871 140.48 423.719 139.856C424.583 139.232 425.919 138.92 427.727 138.92H430.175V137.696C430.175 136.816 429.935 136.144 429.455 135.68C428.975 135.216 428.239 134.984 427.247 134.984C426.495 134.984 425.863 135.152 425.351 135.488C424.855 135.824 424.439 136.272 424.103 136.832L422.951 135.752C423.287 135.08 423.823 134.512 424.559 134.048C425.295 133.568 426.223 133.328 427.343 133.328C428.847 133.328 430.015 133.696 430.847 134.432C431.679 135.168 432.095 136.192 432.095 137.504V144.32H433.511V146H432.431ZM426.911 144.656C427.391 144.656 427.831 144.6 428.231 144.488C428.631 144.376 428.975 144.216 429.263 144.008C429.551 143.8 429.775 143.56 429.935 143.288C430.095 143.016 430.175 142.72 430.175 142.4V140.36H427.631C426.527 140.36 425.719 140.52 425.207 140.84C424.711 141.16 424.463 141.624 424.463 142.232V142.736C424.463 143.344 424.679 143.816 425.111 144.152C425.559 144.488 426.159 144.656 426.911 144.656ZM436.251 146V133.616H438.171V135.632H438.267C438.571 134.928 438.995 134.368 439.539 133.952C440.099 133.536 440.843 133.328 441.771 133.328C443.051 133.328 444.059 133.744 444.795 134.576C445.547 135.392 445.923 136.552 445.923 138.056V146H444.003V138.392C444.003 136.168 443.067 135.056 441.195 135.056C440.811 135.056 440.435 135.104 440.067 135.2C439.715 135.296 439.395 135.44 439.107 135.632C438.819 135.824 438.587 136.072 438.411 136.376C438.251 136.664 438.171 137.008 438.171 137.408V146H436.251ZM458.892 146C458.172 146 457.652 145.808 457.332 145.424C457.028 145.04 456.836 144.56 456.756 143.984H456.636C456.364 144.752 455.916 145.328 455.292 145.712C454.668 146.096 453.924 146.288 453.06 146.288C451.748 146.288 450.724 145.952 449.988 145.28C449.268 144.608 448.908 143.696 448.908 142.544C448.908 141.376 449.332 140.48 450.18 139.856C451.044 139.232 452.38 138.92 454.188 138.92H456.636V137.696C456.636 136.816 456.396 136.144 455.916 135.68C455.436 135.216 454.7 134.984 453.708 134.984C452.956 134.984 452.324 135.152 451.812 135.488C451.316 135.824 450.9 136.272 450.564 136.832L449.412 135.752C449.748 135.08 450.284 134.512 451.02 134.048C451.756 133.568 452.684 133.328 453.804 133.328C455.308 133.328 456.476 133.696 457.308 134.432C458.14 135.168 458.556 136.192 458.556 137.504V144.32H459.972V146H458.892ZM453.372 144.656C453.852 144.656 454.292 144.6 454.692 144.488C455.092 144.376 455.436 144.216 455.724 144.008C456.012 143.8 456.236 143.56 456.396 143.288C456.556 143.016 456.636 142.72 456.636 142.4V140.36H454.092C452.988 140.36 452.18 140.52 451.668 140.84C451.172 141.16 450.924 141.624 450.924 142.232V142.736C450.924 143.344 451.14 143.816 451.572 144.152C452.02 144.488 452.62 144.656 453.372 144.656ZM473.152 147.368C473.152 148.648 472.648 149.584 471.64 150.176C470.648 150.784 469.152 151.088 467.152 151.088C465.216 151.088 463.824 150.824 462.976 150.296C462.128 149.768 461.704 149.016 461.704 148.04C461.704 147.368 461.88 146.84 462.232 146.456C462.584 146.088 463.064 145.816 463.672 145.64V145.376C462.936 145.024 462.568 144.448 462.568 143.648C462.568 143.024 462.768 142.552 463.168 142.232C463.568 141.896 464.08 141.648 464.704 141.488V141.392C463.968 141.04 463.392 140.536 462.976 139.88C462.576 139.224 462.376 138.464 462.376 137.6C462.376 136.976 462.488 136.4 462.712 135.872C462.936 135.344 463.248 134.896 463.648 134.528C464.064 134.144 464.552 133.848 465.112 133.64C465.688 133.432 466.328 133.328 467.032 133.328C467.912 133.328 468.696 133.488 469.384 133.808V133.592C469.384 133.112 469.496 132.72 469.72 132.416C469.944 132.096 470.312 131.936 470.824 131.936H472.672V133.616H470.32V134.408C470.768 134.792 471.112 135.256 471.352 135.8C471.608 136.328 471.736 136.928 471.736 137.6C471.736 138.224 471.624 138.8 471.4 139.328C471.176 139.856 470.856 140.312 470.44 140.696C470.04 141.064 469.552 141.352 468.976 141.56C468.4 141.768 467.76 141.872 467.056 141.872C466.656 141.872 466.256 141.832 465.856 141.752C465.44 141.864 465.064 142.032 464.728 142.256C464.392 142.464 464.224 142.76 464.224 143.144C464.224 143.512 464.4 143.76 464.752 143.888C465.104 144.016 465.56 144.08 466.12 144.08H468.76C470.296 144.08 471.408 144.376 472.096 144.968C472.8 145.544 473.152 146.344 473.152 147.368ZM471.352 147.512C471.352 147.016 471.16 146.616 470.776 146.312C470.408 146.024 469.744 145.88 468.784 145.88H464.656C463.888 146.232 463.504 146.792 463.504 147.56C463.504 148.104 463.704 148.568 464.104 148.952C464.52 149.336 465.216 149.528 466.192 149.528H467.968C469.04 149.528 469.872 149.36 470.464 149.024C471.056 148.688 471.352 148.184 471.352 147.512ZM467.056 140.336C467.872 140.336 468.52 140.144 469 139.76C469.48 139.36 469.72 138.752 469.72 137.936V137.264C469.72 136.448 469.48 135.848 469 135.464C468.52 135.064 467.872 134.864 467.056 134.864C466.24 134.864 465.592 135.064 465.112 135.464C464.632 135.848 464.392 136.448 464.392 137.264V137.936C464.392 138.752 464.632 139.36 465.112 139.76C465.592 140.144 466.24 140.336 467.056 140.336ZM479.907 146.288C479.059 146.288 478.291 146.136 477.603 145.832C476.931 145.528 476.347 145.096 475.851 144.536C475.371 143.96 474.995 143.28 474.723 142.496C474.467 141.696 474.339 140.8 474.339 139.808C474.339 138.832 474.467 137.944 474.723 137.144C474.995 136.344 475.371 135.664 475.851 135.104C476.347 134.528 476.931 134.088 477.603 133.784C478.291 133.48 479.059 133.328 479.907 133.328C480.739 133.328 481.483 133.48 482.139 133.784C482.795 134.088 483.355 134.512 483.819 135.056C484.283 135.584 484.635 136.216 484.875 136.952C485.131 137.688 485.259 138.496 485.259 139.376V140.288H476.355V140.864C476.355 141.392 476.435 141.888 476.595 142.352C476.771 142.8 477.011 143.192 477.315 143.528C477.635 143.864 478.019 144.128 478.467 144.32C478.931 144.512 479.451 144.608 480.027 144.608C480.811 144.608 481.491 144.424 482.067 144.056C482.659 143.688 483.115 143.16 483.435 142.472L484.803 143.456C484.403 144.304 483.779 144.992 482.931 145.52C482.083 146.032 481.075 146.288 479.907 146.288ZM479.907 134.936C479.379 134.936 478.899 135.032 478.467 135.224C478.035 135.4 477.659 135.656 477.339 135.992C477.035 136.328 476.795 136.728 476.619 137.192C476.443 137.64 476.355 138.136 476.355 138.68V138.848H483.195V138.584C483.195 137.48 482.891 136.6 482.283 135.944C481.691 135.272 480.899 134.936 479.907 134.936ZM488.423 146V133.616H490.343V135.632H490.439C490.583 135.312 490.743 135.016 490.919 134.744C491.111 134.456 491.335 134.208 491.591 134C491.863 133.792 492.175 133.632 492.527 133.52C492.879 133.392 493.295 133.328 493.775 133.328C494.591 133.328 495.343 133.528 496.031 133.928C496.719 134.312 497.231 134.952 497.567 135.848H497.615C497.839 135.176 498.255 134.592 498.863 134.096C499.487 133.584 500.327 133.328 501.383 133.328C502.647 133.328 503.631 133.744 504.335 134.576C505.055 135.392 505.415 136.552 505.415 138.056V146H503.495V138.392C503.495 137.288 503.279 136.456 502.847 135.896C502.415 135.336 501.727 135.056 500.783 135.056C500.399 135.056 500.031 135.104 499.679 135.2C499.343 135.296 499.039 135.44 498.767 135.632C498.495 135.824 498.279 136.072 498.119 136.376C497.959 136.664 497.879 137.008 497.879 137.408V146H495.959V138.392C495.959 137.288 495.743 136.456 495.311 135.896C494.879 135.336 494.207 135.056 493.295 135.056C492.911 135.056 492.543 135.104 492.191 135.2C491.839 135.296 491.527 135.44 491.255 135.632C490.983 135.824 490.759 136.072 490.583 136.376C490.423 136.664 490.343 137.008 490.343 137.408V146H488.423ZM514.032 146.288C513.184 146.288 512.416 146.136 511.728 145.832C511.056 145.528 510.472 145.096 509.976 144.536C509.496 143.96 509.12 143.28 508.848 142.496C508.592 141.696 508.464 140.8 508.464 139.808C508.464 138.832 508.592 137.944 508.848 137.144C509.12 136.344 509.496 135.664 509.976 135.104C510.472 134.528 511.056 134.088 511.728 133.784C512.416 133.48 513.184 133.328 514.032 133.328C514.864 133.328 515.608 133.48 516.264 133.784C516.92 134.088 517.48 134.512 517.944 135.056C518.408 135.584 518.76 136.216 519 136.952C519.256 137.688 519.384 138.496 519.384 139.376V140.288H510.48V140.864C510.48 141.392 510.56 141.888 510.72 142.352C510.896 142.8 511.136 143.192 511.44 143.528C511.76 143.864 512.144 144.128 512.592 144.32C513.056 144.512 513.576 144.608 514.152 144.608C514.936 144.608 515.616 144.424 516.192 144.056C516.784 143.688 517.24 143.16 517.56 142.472L518.928 143.456C518.528 144.304 517.904 144.992 517.056 145.52C516.208 146.032 515.2 146.288 514.032 146.288ZM514.032 134.936C513.504 134.936 513.024 135.032 512.592 135.224C512.16 135.4 511.784 135.656 511.464 135.992C511.16 136.328 510.92 136.728 510.744 137.192C510.568 137.64 510.48 138.136 510.48 138.68V138.848H517.32V138.584C517.32 137.48 517.016 136.6 516.408 135.944C515.816 135.272 515.024 134.936 514.032 134.936ZM522.548 146V133.616H524.468V135.632H524.564C524.868 134.928 525.292 134.368 525.836 133.952C526.396 133.536 527.14 133.328 528.068 133.328C529.348 133.328 530.356 133.744 531.092 134.576C531.844 135.392 532.22 136.552 532.22 138.056V146H530.3V138.392C530.3 136.168 529.364 135.056 527.492 135.056C527.108 135.056 526.732 135.104 526.364 135.2C526.012 135.296 525.692 135.44 525.404 135.632C525.116 135.824 524.884 136.072 524.708 136.376C524.548 136.664 524.468 137.008 524.468 137.408V146H522.548ZM538.924 146C538.252 146 537.74 145.816 537.388 145.448C537.052 145.064 536.884 144.568 536.884 143.96V135.296H534.844V133.616H535.996C536.412 133.616 536.692 133.536 536.836 133.376C536.996 133.2 537.076 132.904 537.076 132.488V130.184H538.804V133.616H541.516V135.296H538.804V144.32H541.324V146H538.924Z" fill="white"/>
<path d="M109.061 140.061C109.646 139.475 109.646 138.525 109.061 137.939L99.5147 128.393C98.9289 127.808 97.9792 127.808 97.3934 128.393C96.8076 128.979 96.8076 129.929 97.3934 130.515L105.879 139L97.3934 147.485C96.8076 148.071 96.8076 149.021 97.3934 149.607C97.9792 150.192 98.9289 150.192 99.5147 149.607L109.061 140.061ZM0 140.5H108V137.5H0V140.5Z" fill="black"/>
<path d="M645.939 137.939C645.354 138.525 645.354 139.475 645.939 140.061L655.485 149.607C656.071 150.192 657.021 150.192 657.607 149.607C658.192 149.021 658.192 148.071 657.607 147.485L649.121 139L657.607 130.515C658.192 129.929 658.192 128.979 657.607 128.393C657.021 127.808 656.071 127.808 655.485 128.393L645.939 137.939ZM647 140.5H755V137.5H647V140.5Z" fill="black"/>
</svg>
