<svg width="756" height="103" viewBox="0 0 756 103" fill="none" xmlns="http://www.w3.org/2000/svg">
<rect y="25.871" width="56.5591" height="83.7368" rx="19" transform="rotate(-24.3951 0 25.871)" fill="#0074A2" stroke="black" stroke-width="6"/>
<rect x="21.7016" y="10.84" width="56.5591" height="83.7368" rx="19" transform="rotate(-11.0496 21.7016 10.84)" fill="#00B706" stroke="black" stroke-width="6"/>
<rect x="50.542" y="2.24188" width="56.5591" height="83.7368" rx="19" transform="rotate(4.0556 50.542 2.24188)" fill="#FFD500" stroke="black" stroke-width="6"/>
<rect x="81.4348" y="2.70294" width="56.5591" height="83.7368" rx="19" transform="rotate(20.2838 81.4348 2.70294)" fill="white" stroke="black" stroke-width="6"/>
<path d="M162.62 77H157.58V35.12H174.26C177.94 35.12 180.8 36.14 182.84 38.18C184.92 40.22 185.96 43.16 185.96 47C185.96 50.08 185.24 52.62 183.8 54.62C182.4 56.58 180.32 57.88 177.56 58.52L187.16 77H181.46L172.4 59H162.62V77ZM174.26 54.68C176.26 54.68 177.8 54.16 178.88 53.12C180 52.08 180.56 50.6 180.56 48.68V45.56C180.56 43.64 180 42.16 178.88 41.12C177.8 40.08 176.26 39.56 174.26 39.56H162.62V54.68H174.26ZM206.24 77.72C204.12 77.72 202.2 77.34 200.48 76.58C198.8 75.82 197.34 74.74 196.1 73.34C194.9 71.9 193.96 70.2 193.28 68.24C192.64 66.24 192.32 64 192.32 61.52C192.32 59.08 192.64 56.86 193.28 54.86C193.96 52.86 194.9 51.16 196.1 49.76C197.34 48.32 198.8 47.22 200.48 46.46C202.2 45.7 204.12 45.32 206.24 45.32C208.32 45.32 210.18 45.7 211.82 46.46C213.46 47.22 214.86 48.28 216.02 49.64C217.18 50.96 218.06 52.54 218.66 54.38C219.3 56.22 219.62 58.24 219.62 60.44V62.72H197.36V64.16C197.36 65.48 197.56 66.72 197.96 67.88C198.4 69 199 69.98 199.76 70.82C200.56 71.66 201.52 72.32 202.64 72.8C203.8 73.28 205.1 73.52 206.54 73.52C208.5 73.52 210.2 73.06 211.64 72.14C213.12 71.22 214.26 69.9 215.06 68.18L218.48 70.64C217.48 72.76 215.92 74.48 213.8 75.8C211.68 77.08 209.16 77.72 206.24 77.72ZM206.24 49.34C204.92 49.34 203.72 49.58 202.64 50.06C201.56 50.5 200.62 51.14 199.82 51.98C199.06 52.82 198.46 53.82 198.02 54.98C197.58 56.1 197.36 57.34 197.36 58.7V59.12H214.46V58.46C214.46 55.7 213.7 53.5 212.18 51.86C210.7 50.18 208.72 49.34 206.24 49.34ZM250.03 77C248.23 77 246.93 76.52 246.13 75.56C245.37 74.6 244.89 73.4 244.69 71.96H244.39C243.71 73.88 242.59 75.32 241.03 76.28C239.47 77.24 237.61 77.72 235.45 77.72C232.17 77.72 229.61 76.88 227.77 75.2C225.97 73.52 225.07 71.24 225.07 68.36C225.07 65.44 226.13 63.2 228.25 61.64C230.41 60.08 233.75 59.3 238.27 59.3H244.39V56.24C244.39 54.04 243.79 52.36 242.59 51.2C241.39 50.04 239.55 49.46 237.07 49.46C235.19 49.46 233.61 49.88 232.33 50.72C231.09 51.56 230.05 52.68 229.21 54.08L226.33 51.38C227.17 49.7 228.51 48.28 230.35 47.12C232.19 45.92 234.51 45.32 237.31 45.32C241.07 45.32 243.99 46.24 246.07 48.08C248.15 49.92 249.19 52.48 249.19 55.76V72.8H252.73V77H250.03ZM236.23 73.64C237.43 73.64 238.53 73.5 239.53 73.22C240.53 72.94 241.39 72.54 242.11 72.02C242.83 71.5 243.39 70.9 243.79 70.22C244.19 69.54 244.39 68.8 244.39 68V62.9H238.03C235.27 62.9 233.25 63.3 231.97 64.1C230.73 64.9 230.11 66.06 230.11 67.58V68.84C230.11 70.36 230.65 71.54 231.73 72.38C232.85 73.22 234.35 73.64 236.23 73.64ZM271.1 77.72C268.94 77.72 267 77.34 265.28 76.58C263.56 75.82 262.1 74.74 260.9 73.34C259.74 71.94 258.84 70.24 258.2 68.24C257.6 66.24 257.3 64 257.3 61.52C257.3 59.04 257.6 56.8 258.2 54.8C258.84 52.8 259.74 51.1 260.9 49.7C262.1 48.3 263.56 47.22 265.28 46.46C267 45.7 268.94 45.32 271.1 45.32C274.18 45.32 276.64 46 278.48 47.36C280.36 48.68 281.76 50.42 282.68 52.58L278.66 54.62C278.1 53.02 277.18 51.78 275.9 50.9C274.62 50.02 273.02 49.58 271.1 49.58C269.66 49.58 268.4 49.82 267.32 50.3C266.24 50.74 265.34 51.38 264.62 52.22C263.9 53.02 263.36 54 263 55.16C262.64 56.28 262.46 57.52 262.46 58.88V64.16C262.46 66.88 263.18 69.12 264.62 70.88C266.1 72.6 268.26 73.46 271.1 73.46C274.98 73.46 277.78 71.66 279.5 68.06L282.98 70.4C281.98 72.64 280.48 74.42 278.48 75.74C276.52 77.06 274.06 77.72 271.1 77.72ZM296.596 77C294.916 77 293.636 76.54 292.756 75.62C291.916 74.66 291.496 73.42 291.496 71.9V50.24H286.396V46.04H289.276C290.316 46.04 291.016 45.84 291.376 45.44C291.776 45 291.976 44.26 291.976 43.22V37.46H296.296V46.04H303.076V50.24H296.296V72.8H302.596V77H296.596ZM358.091 41.72H357.791L354.251 48.74L344.231 66.98L334.211 48.74L330.671 41.72H330.371V77H325.451V35.12H332.171L344.171 57.68H344.471L356.531 35.12H363.011V77H358.091V41.72ZM392.743 71.96H392.503C392.183 72.68 391.783 73.4 391.303 74.12C390.863 74.8 390.303 75.42 389.623 75.98C388.943 76.5 388.123 76.92 387.163 77.24C386.203 77.56 385.083 77.72 383.803 77.72C380.603 77.72 378.063 76.7 376.183 74.66C374.303 72.58 373.363 69.66 373.363 65.9V46.04H378.163V65.06C378.163 70.62 380.523 73.4 385.243 73.4C386.203 73.4 387.123 73.28 388.003 73.04C388.923 72.8 389.723 72.44 390.403 71.96C391.123 71.48 391.683 70.88 392.083 70.16C392.523 69.4 392.743 68.5 392.743 67.46V46.04H397.543V77H392.743V71.96ZM412.864 77C411.184 77 409.904 76.54 409.024 75.62C408.184 74.66 407.764 73.46 407.764 72.02V32.6H412.564V72.8H417.124V77H412.864ZM430.659 77C428.979 77 427.699 76.54 426.819 75.62C425.979 74.66 425.559 73.42 425.559 71.9V50.24H420.459V46.04H423.339C424.379 46.04 425.079 45.84 425.439 45.44C425.839 45 426.039 44.26 426.039 43.22V37.46H430.359V46.04H437.139V50.24H430.359V72.8H436.659V77H430.659ZM447.254 38.78C446.214 38.78 445.454 38.54 444.974 38.06C444.534 37.54 444.314 36.88 444.314 36.08V35.3C444.314 34.5 444.534 33.86 444.974 33.38C445.454 32.86 446.214 32.6 447.254 32.6C448.294 32.6 449.034 32.86 449.474 33.38C449.954 33.86 450.194 34.5 450.194 35.3V36.08C450.194 36.88 449.954 37.54 449.474 38.06C449.034 38.54 448.294 38.78 447.254 38.78ZM444.854 46.04H449.654V77H444.854V46.04ZM474.514 77V35.12H491.194C494.954 35.12 497.834 36.2 499.834 38.36C501.874 40.48 502.894 43.4 502.894 47.12C502.894 50.84 501.874 53.78 499.834 55.94C497.834 58.06 494.954 59.12 491.194 59.12H479.554V77H474.514ZM479.554 54.68H491.194C493.194 54.68 494.734 54.16 495.814 53.12C496.934 52.08 497.494 50.6 497.494 48.68V45.56C497.494 43.64 496.934 42.16 495.814 41.12C494.734 40.08 493.194 39.56 491.194 39.56H479.554V54.68ZM532.334 77C530.534 77 529.234 76.52 528.434 75.56C527.674 74.6 527.194 73.4 526.994 71.96H526.694C526.014 73.88 524.894 75.32 523.334 76.28C521.774 77.24 519.914 77.72 517.754 77.72C514.474 77.72 511.914 76.88 510.074 75.2C508.274 73.52 507.374 71.24 507.374 68.36C507.374 65.44 508.434 63.2 510.554 61.64C512.714 60.08 516.054 59.3 520.574 59.3H526.694V56.24C526.694 54.04 526.094 52.36 524.894 51.2C523.694 50.04 521.854 49.46 519.374 49.46C517.494 49.46 515.914 49.88 514.634 50.72C513.394 51.56 512.354 52.68 511.514 54.08L508.634 51.38C509.474 49.7 510.814 48.28 512.654 47.12C514.494 45.92 516.814 45.32 519.614 45.32C523.374 45.32 526.294 46.24 528.374 48.08C530.454 49.92 531.494 52.48 531.494 55.76V72.8H535.034V77H532.334ZM518.534 73.64C519.734 73.64 520.834 73.5 521.834 73.22C522.834 72.94 523.694 72.54 524.414 72.02C525.134 71.5 525.694 70.9 526.094 70.22C526.494 69.54 526.694 68.8 526.694 68V62.9H520.334C517.574 62.9 515.554 63.3 514.274 64.1C513.034 64.9 512.414 66.06 512.414 67.58V68.84C512.414 70.36 512.954 71.54 514.034 72.38C515.154 73.22 516.654 73.64 518.534 73.64ZM567.985 80.42C567.985 83.62 566.725 85.96 564.205 87.44C561.725 88.96 557.985 89.72 552.985 89.72C548.145 89.72 544.665 89.06 542.545 87.74C540.425 86.42 539.365 84.54 539.365 82.1C539.365 80.42 539.805 79.1 540.685 78.14C541.565 77.22 542.765 76.54 544.285 76.1V75.44C542.445 74.56 541.525 73.12 541.525 71.12C541.525 69.56 542.025 68.38 543.025 67.58C544.025 66.74 545.305 66.12 546.865 65.72V65.48C545.025 64.6 543.585 63.34 542.545 61.7C541.545 60.06 541.045 58.16 541.045 56C541.045 54.44 541.325 53 541.885 51.68C542.445 50.36 543.225 49.24 544.225 48.32C545.265 47.36 546.485 46.62 547.885 46.1C549.325 45.58 550.925 45.32 552.685 45.32C554.885 45.32 556.845 45.72 558.565 46.52V45.98C558.565 44.78 558.845 43.8 559.405 43.04C559.965 42.24 560.885 41.84 562.165 41.84H566.785V46.04H560.905V48.02C562.025 48.98 562.885 50.14 563.485 51.5C564.125 52.82 564.445 54.32 564.445 56C564.445 57.56 564.165 59 563.605 60.32C563.045 61.64 562.245 62.78 561.205 63.74C560.205 64.66 558.985 65.38 557.545 65.9C556.105 66.42 554.505 66.68 552.745 66.68C551.745 66.68 550.745 66.58 549.745 66.38C548.705 66.66 547.765 67.08 546.925 67.64C546.085 68.16 545.665 68.9 545.665 69.86C545.665 70.78 546.105 71.4 546.985 71.72C547.865 72.04 549.005 72.2 550.405 72.2H557.005C560.845 72.2 563.625 72.94 565.345 74.42C567.105 75.86 567.985 77.86 567.985 80.42ZM563.485 80.78C563.485 79.54 563.005 78.54 562.045 77.78C561.125 77.06 559.465 76.7 557.065 76.7H546.745C544.825 77.58 543.865 78.98 543.865 80.9C543.865 82.26 544.365 83.42 545.365 84.38C546.405 85.34 548.145 85.82 550.585 85.82H555.025C557.705 85.82 559.785 85.4 561.265 84.56C562.745 83.72 563.485 82.46 563.485 80.78ZM552.745 62.84C554.785 62.84 556.405 62.36 557.605 61.4C558.805 60.4 559.405 58.88 559.405 56.84V55.16C559.405 53.12 558.805 51.62 557.605 50.66C556.405 49.66 554.785 49.16 552.745 49.16C550.705 49.16 549.085 49.66 547.885 50.66C546.685 51.62 546.085 53.12 546.085 55.16V56.84C546.085 58.88 546.685 60.4 547.885 61.4C549.085 62.36 550.705 62.84 552.745 62.84ZM584.873 77.72C582.753 77.72 580.833 77.34 579.113 76.58C577.433 75.82 575.973 74.74 574.733 73.34C573.533 71.9 572.593 70.2 571.913 68.24C571.273 66.24 570.953 64 570.953 61.52C570.953 59.08 571.273 56.86 571.913 54.86C572.593 52.86 573.533 51.16 574.733 49.76C575.973 48.32 577.433 47.22 579.113 46.46C580.833 45.7 582.753 45.32 584.873 45.32C586.953 45.32 588.813 45.7 590.453 46.46C592.093 47.22 593.493 48.28 594.653 49.64C595.813 50.96 596.693 52.54 597.293 54.38C597.933 56.22 598.253 58.24 598.253 60.44V62.72H575.993V64.16C575.993 65.48 576.193 66.72 576.593 67.88C577.033 69 577.633 69.98 578.393 70.82C579.193 71.66 580.153 72.32 581.273 72.8C582.433 73.28 583.733 73.52 585.173 73.52C587.133 73.52 588.833 73.06 590.273 72.14C591.753 71.22 592.893 69.9 593.693 68.18L597.113 70.64C596.113 72.76 594.553 74.48 592.433 75.8C590.313 77.08 587.793 77.72 584.873 77.72ZM584.873 49.34C583.553 49.34 582.353 49.58 581.273 50.06C580.193 50.5 579.253 51.14 578.453 51.98C577.693 52.82 577.093 53.82 576.653 54.98C576.213 56.1 575.993 57.34 575.993 58.7V59.12H593.093V58.46C593.093 55.7 592.333 53.5 590.813 51.86C589.333 50.18 587.353 49.34 584.873 49.34ZM620.822 77V35.12H645.782V39.56H625.862V53.6H644.042V58.04H625.862V77H620.822ZM664.034 77.72C661.954 77.72 660.054 77.34 658.334 76.58C656.614 75.82 655.134 74.74 653.894 73.34C652.694 71.9 651.754 70.2 651.074 68.24C650.394 66.24 650.054 64 650.054 61.52C650.054 59.08 650.394 56.86 651.074 54.86C651.754 52.86 652.694 51.16 653.894 49.76C655.134 48.32 656.614 47.22 658.334 46.46C660.054 45.7 661.954 45.32 664.034 45.32C666.114 45.32 667.994 45.7 669.674 46.46C671.394 47.22 672.874 48.32 674.114 49.76C675.354 51.16 676.314 52.86 676.994 54.86C677.674 56.86 678.014 59.08 678.014 61.52C678.014 64 677.674 66.24 676.994 68.24C676.314 70.2 675.354 71.9 674.114 73.34C672.874 74.74 671.394 75.82 669.674 76.58C667.994 77.34 666.114 77.72 664.034 77.72ZM664.034 73.46C666.634 73.46 668.754 72.66 670.394 71.06C672.034 69.46 672.854 67.02 672.854 63.74V59.3C672.854 56.02 672.034 53.58 670.394 51.98C668.754 50.38 666.634 49.58 664.034 49.58C661.434 49.58 659.314 50.38 657.674 51.98C656.034 53.58 655.214 56.02 655.214 59.3V63.74C655.214 67.02 656.034 69.46 657.674 71.06C659.314 72.66 661.434 73.46 664.034 73.46ZM685.909 77V46.04H690.709V51.74H691.009C691.569 50.26 692.569 48.94 694.009 47.78C695.449 46.62 697.429 46.04 699.949 46.04H701.809V50.84H698.989C696.389 50.84 694.349 51.34 692.869 52.34C691.429 53.3 690.709 54.52 690.709 56V77H685.909ZM707.94 77V46.04H712.74V51.08H712.98C713.34 50.28 713.74 49.54 714.18 48.86C714.66 48.14 715.22 47.52 715.86 47C716.54 46.48 717.32 46.08 718.2 45.8C719.08 45.48 720.12 45.32 721.32 45.32C723.36 45.32 725.24 45.82 726.96 46.82C728.68 47.78 729.96 49.38 730.8 51.62H730.92C731.48 49.94 732.52 48.48 734.04 47.24C735.6 45.96 737.7 45.32 740.34 45.32C743.5 45.32 745.96 46.36 747.72 48.44C749.52 50.48 750.42 53.38 750.42 57.14V77H745.62V57.98C745.62 55.22 745.08 53.14 744 51.74C742.92 50.34 741.2 49.64 738.84 49.64C737.88 49.64 736.96 49.76 736.08 50C735.24 50.24 734.48 50.6 733.8 51.08C733.12 51.56 732.58 52.18 732.18 52.94C731.78 53.66 731.58 54.52 731.58 55.52V77H726.78V57.98C726.78 55.22 726.24 53.14 725.16 51.74C724.08 50.34 722.4 49.64 720.12 49.64C719.16 49.64 718.24 49.76 717.36 50C716.48 50.24 715.7 50.6 715.02 51.08C714.34 51.56 713.78 52.18 713.34 52.94C712.94 53.66 712.74 54.52 712.74 55.52V77H707.94Z" fill="black"/>
</svg>
